<?xml version="1.0" encoding="UTF-8"?>
<svg id="Layer_1" data-name="Layer 1" xmlns="http://www.w3.org/2000/svg" viewBox="0 0 20 20">
  <defs>
    <style>
      .cls-1 {
        fill: #fff;
      }
    </style>
  </defs>
  <path class="cls-1" d="M10.48.21c.26.11.53.23.75.42l8.18,8.2c.69.92.39,2.32-.69,2.77-.09.04-.39.15-.46.15h-.55v6.12c-.46,2.61-3.34,1.69-5.21,1.86-.31,0-.56-.25-.59-.55-.1-1.52.13-3.2,0-4.7-.04-.42-.31-.75-.71-.85-.32-.08-2.08-.08-2.38.02s-.56.37-.64.7c-.12,1.54.12,3.24,0,4.76-.03.35-.2.58-.55.63-1.9-.16-4.87.77-5.25-1.93v-6.05s-.55,0-.55,0c-1.17,0-2.02-1.82-1.27-2.76C3.33,6.09,6.18,3.22,9.08.43l.48-.22h.92ZM13.03,18.57h2.73s.26-.1.3-.12c.27-.14.45-.44.48-.74l.03-6.69c.26-.76,1.21-.23,1.74-.51.41-.22.43-.77.1-1.08L10.54,1.54c-.38-.31-.66-.31-1.03,0L1.62,9.43c-.32.31-.31.87.1,1.08.53.28,1.48-.25,1.74.51l.03,6.77c.06.28.24.55.51.68.04.02.26.11.27.11h2.73v-4.37c0-.6.74-1.37,1.27-1.59.66-.27,2.76-.28,3.43-.02.59.22,1.33,1,1.33,1.65v4.33Z"/>
</svg>